<svg viewBox="0 0 300 100" xmlns="http://www.w3.org/2000/svg">
  <!-- Background circle for contrast if needed -->
  <circle cx="50" cy="50" r="45" fill="#f0f0f0" opacity="0"/>
  
  <!-- House/Building icon with shared elements -->
  <g transform="translate(10, 15)">
    <!-- Main building structure -->
    <rect x="15" y="35" width="50" height="35" fill="#3B82F6" rx="2"/>
    
    <!-- Roof -->
    <path d="M 10 40 L 40 15 L 70 40" stroke="#3B82F6" stroke-width="4" fill="none" stroke-linejoin="round" stroke-linecap="round"/>
    
    <!-- Windows representing different rooms/flatmates -->
    <rect x="22" y="42" width="8" height="8" fill="#ffffff" rx="1"/>
    <rect x="35" y="42" width="8" height="8" fill="#ffffff" rx="1"/>
    <rect x="48" y="42" width="8" height="8" fill="#ffffff" rx="1"/>
    
    <rect x="22" y="55" width="8" height="8" fill="#ffffff" rx="1"/>
    <rect x="48" y="55" width="8" height="8" fill="#ffffff" rx="1"/>
    
    <!-- Door -->
    <rect x="35" y="55" width="8" height="15" fill="#1E40AF" rx="1"/>
    <circle cx="41" cy="62" r="0.5" fill="#ffffff"/>
    
    <!-- Connection dots showing community -->
    <circle cx="26" cy="46" r="2" fill="#10B981"/>
    <circle cx="39" cy="46" r="2" fill="#F59E0B"/>
    <circle cx="52" cy="46" r="2" fill="#EF4444"/>
  </g>
  

  
  <!-- Alternative minimalist version below -->
  <g transform="translate(0, 120)">

    
    <!-- Simplified icon version -->
    <g transform="translate(0, 30)">
      <!-- Overlapping houses representing shared living -->
      <rect x="5" y="15" width="25" height="25" fill="#3B82F6" opacity="0.8" rx="2"/>
      <rect x="15" y="10" width="25" height="25" fill="#10B981" opacity="0.8" rx="2"/>
      
      <!-- Small windows -->
      <rect x="10" y="20" width="4" height="4" fill="#ffffff"/>
      <rect x="16" y="20" width="4" height="4" fill="#ffffff"/>
      <rect x="22" y="15" width="4" height="4" fill="#ffffff"/>
      <rect x="28" y="15" width="4" height="4" fill="#ffffff"/>

    </g>
  </g>
  
  <!-- Icon-only version -->
  <g transform="translate(0, 220)">
    <text x="0" y="20" font-family="Arial, sans-serif" font-size="12" fill="#9CA3AF">
      Icon only:
    </text>
    
    <g transform="translate(0, 30)">
      <!-- Circular background -->
      <circle cx="25" cy="25" r="25" fill="#EBF5FF"/>
      
      <!-- Simplified house with people dots -->
      <path d="M 15 30 L 25 20 L 35 30" stroke="#3B82F6" stroke-width="3" fill="none" stroke-linejoin="round" stroke-linecap="round"/>
      <rect x="17" y="30" width="16" height="12" fill="#3B82F6" rx="1"/>
      
      <!-- Three dots representing flatmates -->
      <circle cx="20" cy="36" r="2" fill="#10B981"/>
      <circle cx="25" cy="36" r="2" fill="#F59E0B"/>
      <circle cx="30" cy="36" r="2" fill="#EF4444"/>
    </g>
  </g>
</svg>