<svg width="1264" height="808" viewBox="0 0 1264 808" fill="none" xmlns="http://www.w3.org/2000/svg">
<path d="M377.044 221.234H343V255.278M377.044 221.234V255.278M377.044 221.234H411.088M377.044 255.278H343M377.044 255.278H411.088M377.044 255.278V289.323M343 255.278V289.323M411.088 221.234V255.278M411.088 221.234H445.132M411.088 255.278H445.132M411.088 255.278V289.323M445.132 221.234V255.278M445.132 221.234H479.176M445.132 255.278H479.176M445.132 255.278V289.323M479.176 221.234V255.278M479.176 221.234H513.221M479.176 255.278H513.221M479.176 255.278V289.323M513.221 221.234V255.278M513.221 221.234H547.265M513.221 255.278H547.265M513.221 255.278V289.323M547.265 221.234V255.278M547.265 221.234H581.309M547.265 255.278H581.309M547.265 255.278V289.323M581.309 221.234V255.278M581.309 221.234H615.353M581.309 255.278H615.353M581.309 255.278V289.323M615.353 221.234V255.278M615.353 221.234H649.397M615.353 255.278H649.397M615.353 255.278V289.323M649.397 221.234V255.278M649.397 221.234H683.441M649.397 255.278H683.441M649.397 255.278V289.323M683.441 221.234V255.278M683.441 221.234H717.485M683.441 255.278H717.485M683.441 255.278V289.323M717.485 221.234V255.278M717.485 221.234H751.529M717.485 255.278H751.529M717.485 255.278V289.323M751.529 221.234V255.278M751.529 221.234H785.574M751.529 255.278H785.574M751.529 255.278V289.323M785.574 221.234V255.278M785.574 221.234H819.618M785.574 255.278H819.618M785.574 255.278V289.323M819.618 221.234V255.278M819.618 221.234H853.662M819.618 255.278H853.662M819.618 255.278V289.323M853.662 221.234V255.278M853.662 221.234H887.706M853.662 255.278H887.706M853.662 255.278V289.323M887.706 221.234V255.278M887.706 221.234H921.75V255.278M887.706 255.278H921.75M887.706 255.278V289.323M921.75 255.278V289.323M377.044 289.323H343M377.044 289.323H411.088M377.044 289.323V323.367M343 289.323V323.367M411.088 289.323H445.132M411.088 289.323V323.367M445.132 289.323H479.176M445.132 289.323V323.367M479.176 289.323H513.221M479.176 289.323V323.367M513.221 289.323H547.265M513.221 289.323V323.367M547.265 289.323H581.309M547.265 289.323V323.367M581.309 289.323H615.353M581.309 289.323V323.367M615.353 289.323H649.397M615.353 289.323V323.367M649.397 289.323H683.441M649.397 289.323V323.367M683.441 289.323H717.485M683.441 289.323V323.367M717.485 289.323H751.529M717.485 289.323V323.367M751.529 289.323H785.574M751.529 289.323V323.367M785.574 289.323H819.618M785.574 289.323V323.367M819.618 289.323H853.662M819.618 289.323V323.367M853.662 289.323H887.706M853.662 289.323V323.367M887.706 289.323H921.75M887.706 289.323V323.367M921.75 289.323V323.367M377.044 323.367H343M377.044 323.367H411.088M377.044 323.367V357.411M343 323.367V357.411M411.088 323.367H445.132M411.088 323.367V357.411M445.132 323.367H479.176M445.132 323.367V357.411M479.176 323.367H513.221M479.176 323.367V357.411M513.221 323.367H547.265M513.221 323.367V357.411M547.265 323.367H581.309M547.265 323.367V357.411M581.309 323.367H615.353M581.309 323.367V357.411M615.353 323.367H649.397M615.353 323.367V357.411M649.397 323.367H683.441M649.397 323.367V357.411M683.441 323.367H717.485M683.441 323.367V357.411M717.485 323.367H751.529M717.485 323.367V357.411M751.529 323.367H785.574M751.529 323.367V357.411M785.574 323.367H819.618M785.574 323.367V357.411M819.618 323.367H853.662M819.618 323.367V357.411M853.662 323.367H887.706M853.662 323.367V357.411M887.706 323.367H921.75M887.706 323.367V357.411M921.75 323.367V357.411M377.044 357.411H343M377.044 357.411H411.088M377.044 357.411V391.455M343 357.411V391.455M411.088 357.411H445.132M411.088 357.411V391.455M445.132 357.411H479.176M445.132 357.411V391.455M479.176 357.411H513.221M479.176 357.411V391.455M513.221 357.411H547.265M513.221 357.411V391.455M547.265 357.411H581.309M547.265 357.411V391.455M581.309 357.411H615.353M581.309 357.411V391.455M615.353 357.411H649.397M615.353 357.411V391.455M649.397 357.411H683.441M649.397 357.411V391.455M683.441 357.411H717.485M683.441 357.411V391.455M717.485 357.411H751.529M717.485 357.411V391.455M751.529 357.411H785.574M751.529 357.411V391.455M785.574 357.411H819.618M785.574 357.411V391.455M819.618 357.411H853.662M819.618 357.411V391.455M853.662 357.411H887.706M853.662 357.411V391.455M887.706 357.411H921.75M887.706 357.411V391.455M921.75 357.411V391.455M377.044 391.455H343M377.044 391.455H411.088M377.044 391.455V425.499M343 391.455V425.499M411.088 391.455H445.132M411.088 391.455V425.499M445.132 391.455H479.176M445.132 391.455V425.499M479.176 391.455H513.221M479.176 391.455V425.499M513.221 391.455H547.265M513.221 391.455V425.499M547.265 391.455H581.309M547.265 391.455V425.499M581.309 391.455H615.353M581.309 391.455V425.499M615.353 391.455H649.397M615.353 391.455V425.499M649.397 391.455H683.441M649.397 391.455V425.499M683.441 391.455H717.485M683.441 391.455V425.499M717.485 391.455H751.529M717.485 391.455V425.499M751.529 391.455H785.574M751.529 391.455V425.499M785.574 391.455H819.618M785.574 391.455V425.499M819.618 391.455H853.662M819.618 391.455V425.499M853.662 391.455H887.706M853.662 391.455V425.499M887.706 391.455H921.75M887.706 391.455V425.499M921.75 391.455V425.499M377.044 425.499H343M377.044 425.499H411.088M377.044 425.499V459.543M343 425.499V459.543M411.088 425.499H445.132M411.088 425.499V459.543M445.132 425.499H479.176M445.132 425.499V459.543M479.176 425.499H513.221M479.176 425.499V459.543M513.221 425.499H547.265M513.221 425.499V459.543M547.265 425.499H581.309M547.265 425.499V459.543M581.309 425.499H615.353M581.309 425.499V459.543M615.353 425.499H649.397M615.353 425.499V459.543M649.397 425.499H683.441M649.397 425.499V459.543M683.441 425.499H717.485M683.441 425.499V459.543M717.485 425.499H751.529M717.485 425.499V459.543M751.529 425.499H785.574M751.529 425.499V459.543M785.574 425.499H819.618M785.574 425.499V459.543M819.618 425.499H853.662M819.618 425.499V459.543M853.662 425.499H887.706M853.662 425.499V459.543M887.706 425.499H921.75M887.706 425.499V459.543M921.75 425.499V459.543M377.044 459.543H343M377.044 459.543H411.088M377.044 459.543V493.587M343 459.543V493.587M411.088 459.543H445.132M411.088 459.543V493.587M445.132 459.543H479.176M445.132 459.543V493.587M479.176 459.543H513.221M479.176 459.543V493.587M513.221 459.543H547.265M513.221 459.543V493.587M547.265 459.543H581.309M547.265 459.543V493.587M581.309 459.543H615.353M581.309 459.543V493.587M615.353 459.543H649.397M615.353 459.543V493.587M649.397 459.543H683.441M649.397 459.543V493.587M683.441 459.543H717.485M683.441 459.543V493.587M717.485 459.543H751.529M717.485 459.543V493.587M751.529 459.543H785.574M751.529 459.543V493.587M785.574 459.543H819.618M785.574 459.543V493.587M819.618 459.543H853.662M819.618 459.543V493.587M853.662 459.543H887.706M853.662 459.543V493.587M887.706 459.543H921.75M887.706 459.543V493.587M921.75 459.543V493.587M377.044 493.587H343M377.044 493.587H411.088M377.044 493.587V527.631M343 493.587V527.631M411.088 493.587H445.132M411.088 493.587V527.631M445.132 493.587H479.176M445.132 493.587V527.631M479.176 493.587H513.221M479.176 493.587V527.631M513.221 493.587H547.265M513.221 493.587V527.631M547.265 493.587H581.309M547.265 493.587V527.631M581.309 493.587H615.353M581.309 493.587V527.631M615.353 493.587H649.397M615.353 493.587V527.631M649.397 493.587H683.441M649.397 493.587V527.631M683.441 493.587H717.485M683.441 493.587V527.631M717.485 493.587H751.529M717.485 493.587V527.631M751.529 493.587H785.574M751.529 493.587V527.631M785.574 493.587H819.618M785.574 493.587V527.631M819.618 493.587H853.662M819.618 493.587V527.631M853.662 493.587H887.706M853.662 493.587V527.631M887.706 493.587H921.75M887.706 493.587V527.631M921.75 493.587V527.631M377.044 527.631H343M377.044 527.631H411.088M377.044 527.631V561.676M343 527.631V561.676M411.088 527.631H445.132M411.088 527.631V561.676M445.132 527.631H479.176M445.132 527.631V561.676M479.176 527.631H513.221M479.176 527.631V561.676M513.221 527.631H547.265M513.221 527.631V561.676M547.265 527.631H581.309M547.265 527.631V561.676M581.309 527.631H615.353M581.309 527.631V561.676M615.353 527.631H649.397M615.353 527.631V561.676M649.397 527.631H683.441M649.397 527.631V561.676M683.441 527.631H717.485M683.441 527.631V561.676M717.485 527.631H751.529M717.485 527.631V561.676M751.529 527.631H785.574M751.529 527.631V561.676M785.574 527.631H819.618M785.574 527.631V561.676M819.618 527.631H853.662M819.618 527.631V561.676M853.662 527.631H887.706M853.662 527.631V561.676M887.706 527.631H921.75M887.706 527.631V561.676M921.75 527.631V561.676M377.044 561.676H343M377.044 561.676H411.088M377.044 561.676V595.72M343 561.676V595.72M411.088 561.676H445.132M411.088 561.676V595.72M445.132 561.676H479.176M445.132 561.676V595.72M479.176 561.676H513.221M479.176 561.676V595.72M513.221 561.676H547.265M513.221 561.676V595.72M547.265 561.676H581.309M547.265 561.676V595.72M581.309 561.676H615.353M581.309 561.676V595.72M615.353 561.676H649.397M615.353 561.676V595.72M649.397 561.676H683.441M649.397 561.676V595.72M683.441 561.676H717.485M683.441 561.676V595.72M717.485 561.676H751.529M717.485 561.676V595.72M751.529 561.676H785.574M751.529 561.676V595.72M785.574 561.676H819.618M785.574 561.676V595.72M819.618 561.676H853.662M819.618 561.676V595.72M853.662 561.676H887.706M853.662 561.676V595.72M887.706 561.676H921.75M887.706 561.676V595.72M921.75 561.676V595.72M377.044 595.72H343M377.044 595.72H411.088M377.044 595.72V629.764M343 595.72V629.764H377.044M411.088 595.72H445.132M411.088 595.72V629.764M445.132 595.72H479.176M445.132 595.72V629.764M479.176 595.72H513.221M479.176 595.72V629.764M513.221 595.72H547.265M513.221 595.72V629.764M547.265 595.72H581.309M547.265 595.72V629.764M581.309 595.72H615.353M581.309 595.72V629.764M615.353 595.72H649.397M615.353 595.72V629.764M649.397 595.72H683.441M649.397 595.72V629.764M683.441 595.72H717.485M683.441 595.72V629.764M717.485 595.72H751.529M717.485 595.72V629.764M751.529 595.72H785.574M751.529 595.72V629.764M785.574 595.72H819.618M785.574 595.72V629.764M819.618 595.72H853.662M819.618 595.72V629.764M853.662 595.72H887.706M853.662 595.72V629.764M887.706 595.72H921.75M887.706 595.72V629.764M921.75 595.72V629.764H887.706M377.044 629.764H411.088M411.088 629.764H445.132M445.132 629.764H479.176M479.176 629.764H513.221M513.221 629.764H547.265M547.265 629.764H581.309M581.309 629.764H615.353M615.353 629.764H649.397M649.397 629.764H683.441M683.441 629.764H717.485M717.485 629.764H751.529M751.529 629.764H785.574M785.574 629.764H819.618M819.618 629.764H853.662M853.662 629.764H887.706" stroke="url(#paint0_radial_3519_1254)" stroke-opacity="0.1"/>
<g opacity="0.7" filter="url(#filter0_f_3519_1254)">
<g filter="url(#filter1_f_3519_1254)">
<path d="M630.164 401.125C725.796 401.125 803.32 351.177 803.32 289.562C803.32 227.948 725.796 178 630.164 178C534.533 178 457.008 227.948 457.008 289.562C457.008 351.177 534.533 401.125 630.164 401.125Z" fill="#57CDDD" fill-opacity="0.72"/>
</g>
<path opacity="0.8" d="M642.707 629.388C876.436 629.388 1143.94 633.467 1065.91 429.149C1065.91 326.217 1225.93 107.379 642.707 215.043C408.978 215.043 56.8341 154.686 219.503 429.149C143.238 595.132 408.978 629.388 642.707 629.388Z" fill="#D764D9" fill-opacity="0.1"/>
<g filter="url(#filter2_f_3519_1254)">
<path d="M630.5 570C794.805 570 928 492.993 928 398C928 226 794.805 226 630.5 226C466.195 226 333 226 333 398C333 492.993 466.195 570 630.5 570Z" fill="#9B57DD" fill-opacity="0.4"/>
</g>
</g>
<defs>
<filter id="filter0_f_3519_1254" x="0" y="0" width="1264" height="807.395" filterUnits="userSpaceOnUse" color-interpolation-filters="sRGB">
<feFlood flood-opacity="0" result="BackgroundImageFix"/>
<feBlend mode="normal" in="SourceGraphic" in2="BackgroundImageFix" result="shape"/>
<feGaussianBlur stdDeviation="89" result="effect1_foregroundBlur_3519_1254"/>
</filter>
<filter id="filter1_f_3519_1254" x="307.008" y="28" width="646.312" height="523.125" filterUnits="userSpaceOnUse" color-interpolation-filters="sRGB">
<feFlood flood-opacity="0" result="BackgroundImageFix"/>
<feBlend mode="normal" in="SourceGraphic" in2="BackgroundImageFix" result="shape"/>
<feGaussianBlur stdDeviation="75" result="effect1_foregroundBlur_3519_1254"/>
</filter>
<filter id="filter2_f_3519_1254" x="313" y="206" width="635" height="384" filterUnits="userSpaceOnUse" color-interpolation-filters="sRGB">
<feFlood flood-opacity="0" result="BackgroundImageFix"/>
<feBlend mode="normal" in="SourceGraphic" in2="BackgroundImageFix" result="shape"/>
<feGaussianBlur stdDeviation="10" result="effect1_foregroundBlur_3519_1254"/>
</filter>
<radialGradient id="paint0_radial_3519_1254" cx="0" cy="0" r="1" gradientUnits="userSpaceOnUse" gradientTransform="translate(632.375 436.411) rotate(90) scale(192.917 289.811)">
<stop stop-color="#0F172A"/>
<stop offset="1" stop-color="#0F172A" stop-opacity="0"/>
</radialGradient>
</defs>
</svg>
